<svg width="450" height="250" viewBox="0 0 450 250" fill="none" xmlns="http://www.w3.org/2000/svg">
  <ellipse cx="225" cy="221" rx="165" ry="19" fill="#CFE9CF" opacity=".6"/>
  <path d="M84 178c19-45 54-67 101-55 24-43 96-48 124 3 43-15 82 3 104 49" stroke="#B7E5C2" stroke-width="26" stroke-linecap="round"/>
  <rect x="116" y="75" width="222" height="122" rx="10" fill="#EAFBFC" stroke="#90DDE3" stroke-width="6"/>
  <rect x="138" y="123" width="55" height="74" rx="3" fill="#7FD3E7"/>
  <path d="M151 123v74" stroke="#49B6CB" stroke-width="3"/>
  <rect x="226" y="126" width="80" height="48" rx="6" fill="#B5EEF4" stroke="#83D6E3" stroke-width="4"/>
  <rect x="124" y="56" width="205" height="40" rx="6" fill="#FFF8ED" stroke="#63C7D9" stroke-width="6"/>
  <circle cx="145" cy="76" r="12" fill="#fff" stroke="#8FDDE3" stroke-width="3"/>
  <path d="M139 78c5-6 9-6 14 0" stroke="#F28A76" stroke-width="3" stroke-linecap="round"/>
  <text x="164" y="82" font-family="Poppins, Arial" font-size="16" font-weight="800" fill="#29AFC9">Clodi Klaten Babyshop</text>
  <path d="M104 96h248l-22 43H126L104 96Z" fill="#FC8C7B"/>
  <path d="M104 96h42l-14 43h-18l-10-43ZM188 96h42l-8 43h-47l13-43ZM273 96h42l13 43h-47l-8-43Z" fill="#5BC8DC"/>
  <path d="M126 139c0 14 21 14 21 0h-21Zm43 0c0 14 21 14 21 0h-21Zm43 0c0 14 21 14 21 0h-21Zm43 0c0 14 21 14 21 0h-21Zm43 0c0 14 21 14 21 0h-21Zm43 0c0 14 21 14 21 0h-21Z" fill="#FDE2D7"/>
  <ellipse cx="136" cy="184" rx="31" ry="18" fill="#70C987"/>
  <ellipse cx="343" cy="187" rx="38" ry="22" fill="#70C987"/>
  <circle cx="166" cy="161" r="3" fill="#56AEBE"/>
</svg>